Coordinates
version=1
nRows=10
nColumns=34
inDegrees=yes

Units are S.I. units (second, meters, Newtons, ...)
If the header above contains a line with 'inDegrees', this indicates whether rotational values are in degrees (yes) or radians (no).

endheader
time	pelvis_tilt	pelvis_list	pelvis_rotation	pelvis_tx	pelvis_ty	pelvis_tz	hip_flexion_r	hip_adduction_r	hip_rotation_r	knee_angle_r	ankle_angle_r	subtalar_angle_r	mtp_angle_r	hip_flexion_l	hip_adduction_l	hip_rotation_l	knee_angle_l	ankle_angle_l	subtalar_angle_l	mtp_angle_l	lumbar_extension	lumbar_bending	lumbar_rotation	arm_flex_r	arm_add_r	arm_rot_r	elbow_flex_r	pro_sup_r	arm_flex_l	arm_add_l	arm_rot_l	elbow_flex_l	pro_sup_l
      3.01666670	     -8.31795366	      1.90073210	      4.30796117	      1.95439636	      0.91138001	     -0.17017557	     -2.04880341	     -6.97982395	     -9.30022346	      7.92017466	    -12.77700067	     -7.33416143	      0.00000000	     -1.24120667	     -2.88195873	     -7.12030517	      4.24681379	     -9.26074949	     -0.36475239	      0.00000000	      2.53823249	     -4.23944968	      6.72675432	    137.85477988	     -1.43276900	     26.21114588	     60.71335071	     86.79537187	     98.69450252	     -9.83389066	     24.50232974	    115.18598059	     99.30419533
      3.03333330	     -8.14404271	      1.99130659	      4.09100486	      1.95927520	      0.91177851	     -0.17225280	     -2.52260479	     -7.14259539	     -9.35475530	      8.09009158	    -12.46603373	     -7.56828293	      0.00000000	     -1.72817630	     -2.71213363	     -7.10882813	      4.46014732	     -8.91701251	     -0.16738731	      0.00000000	      2.37968372	     -4.05559437	      5.76479504	    134.34739155	     -2.21461624	     26.21020438	     66.37204302	     88.08340387	     94.07499489	    -10.80258737	     24.91005219	    117.91023725	     99.65194560
      3.05000000	     -8.10820642	      2.07897825	      3.83755421	      1.96399184	      0.91079674	     -0.17353497	     -2.84741723	     -7.27301464	     -9.35736458	      8.18533873	    -12.24593581	     -7.82535932	      0.00000000	     -1.98124475	     -2.56581119	     -7.23780194	      4.88790355	     -8.61741528	     -0.08386254	      0.00000000	      2.45597014	     -4.06102753	      4.96500737	    129.88703454	     -3.08118315	     25.06662739	     72.62736479	     89.24236566	     89.15645564	    -11.52565088	     25.98201602	    119.88361973	    100.16074431
      3.06666670	     -8.04446072	      2.15826427	      3.59156583	      1.96894670	      0.91065361	     -0.17480669	     -3.12790734	     -7.35464253	     -9.29003348	      8.36647220	    -12.13566628	     -8.13558227	      0.00000000	     -2.31864205	     -2.44694522	     -7.44314409	      5.26617068	     -8.39393371	     -0.09490123	      0.00000000	      2.50893583	     -4.34041840	      4.31423567	    124.68833622	     -3.91127804	     22.83486793	     78.92376552	     91.40056589	     83.96603001	    -12.13930141	     27.70289299	    120.60482289	    101.35470978
      3.08333330	     -7.95876061	      2.15045284	      3.44763328	      1.97441953	      0.91094088	     -0.17690527	     -3.24725756	     -7.37750980	     -9.39716377	      8.90260818	    -11.89576757	     -8.41344201	      0.00000000	     -2.61305556	     -2.39309537	     -7.39356427	      5.75575097	     -7.88634315	     -0.17906215	      0.00000000	      2.13767350	     -4.06716390	      3.52081780	    119.97593572	     -4.40567967	     22.25435142	     85.05936179	     92.03370910	     78.01215149	    -13.28004910	     27.79507386	    122.56473866	    101.72479657
      3.10000000	     -7.82267162	      2.13759163	      3.29460853	      1.97999775	      0.91061468	     -0.17879230	     -3.22207252	     -7.42819583	     -9.52179728	      9.73923641	    -11.82366033	     -8.75891134	      0.00000000	     -3.03113397	     -2.32279879	     -7.42890476	      6.13276765	     -7.65670435	     -0.36698239	      0.00000000	      1.71247728	     -3.85013015	      2.52199505	    114.36818149	     -4.98875851	     21.65681375	     91.50740210	     92.43800739	     71.93651838	    -14.64587101	     27.52963907	    123.72860882	    101.99630380
      3.11666670	     -7.78562775	      1.94564820	      3.11041457	      1.98561828	      0.90812522	     -0.18058479	     -2.58440569	     -7.39897532	     -9.33145221	     11.46089007	    -11.71840371	     -9.46892247	      0.00000000	     -3.39192884	     -2.37692640	     -7.20980076	      6.39341958	     -7.13132658	     -0.89272983	      0.00000000	      1.36199950	     -3.56925615	      1.44243813	    108.26629827	     -5.80356862	     20.92961572	     97.89441930	     92.95256247	     66.03354425	    -15.30309236	     27.14248569	    124.23064084	    102.39325760
      3.13333330	     -7.51141402	      1.75897239	      3.03583826	      1.99159735	      0.90442751	     -0.18233442	     -1.86473305	     -7.50119970	     -9.54426536	     13.83115484	    -12.18775654	    -10.56311246	      0.00000000	     -4.10275301	     -2.40399081	     -6.77249900	      6.43978437	     -6.76973272	     -1.33799370	      0.00000000	      0.50930719	     -3.15273890	      0.23607983	    102.70465234	     -6.80727223	     21.33067440	    103.71315353	     93.25387435	     60.33501758	    -15.66723678	     26.39691699	    124.41293874	    102.55592873
      3.15000000	     -7.24787733	      1.39900317	      2.89363443	      1.99796490	      0.90047509	     -0.18410899	     -0.57087756	     -7.51298393	     -9.48092132	     17.20767456	    -12.87001178	    -12.27843631	      0.00000000	     -4.85006171	     -2.62406556	     -6.17318369	      6.46774134	     -6.33665884	     -1.99616659	      0.00000000	     -0.29179302	     -2.64270031	     -0.85827591	     96.79132889	     -8.09458788	     21.54245046	    108.65328186	     93.49541123	     54.58734890	    -15.45820046	     25.76851621	    123.56990780	    102.69304952
      3.16666670	     -6.91741440	      1.04195068	      2.84109272	      2.00457791	      0.89866053	     -0.18648448	      1.16650768	     -7.61545084	     -9.47280875	     21.50932731	    -13.82929976	    -14.21843498	      0.00000000	     -5.66468433	     -2.90395267	     -5.70505110	      6.54882016	     -6.17825533	     -2.44075312	      0.00000000	     -1.31196489	     -2.14251607	     -2.14018257	     90.50332521	     -9.43581414	     21.86318172	    113.12059190	     93.61373489	     48.60039951	    -15.04280139	     24.94072768	    121.78266180	    102.70285425
